<svg id="Layer_1" data-name="Layer 1" xmlns="http://www.w3.org/2000/svg" viewBox="0 0 421.02732 148.56831"><defs><style>.cls-1{fill:#fff;}</style></defs><path class="cls-1" d="M105.369,69.80271l10.80645-4.4964-4.9154-.916c-3.23175.58112-11.51386.252-14.86578.078l8.6759,2.97064.11847.93713L39.87648,86.9592,35.111,93.26731l70.08667-24.81916Z"/><polygon class="cls-1" points="32.877 97.959 28.111 104.267 111.271 68.068 32.877 97.959"/><path class="cls-1" d="M120.44875,29.90067c23.454,27.64191,11.21033,80.95483-36.741,81.76684-11.98315-.20465-21.73248-3.69128-29.25616-9.2326,8.04639,9.48328,20.28491,15.95172,36.73749,16.23273C143.60927,117.77988,153.365,54.14383,120.44875,29.90067Z"/><path class="cls-1" d="M165.31618,70.86325V31.04294h18.73926q11.93408,0,18.09766,5.04688,6.16187,5.04784,6.16259,14.86328,0,9.53613-6.46972,14.72363-6.47022,5.187-18.34864,5.18652Zm18.46-9.36914q12.60353,0,12.6045-10.59668,0-10.48534-12.10254-10.48535h-7.36133v21.082Z"/><path class="cls-1" d="M240.49587,70.86325l-7.97559-13.49707H223.3738V70.86325H212.33132V31.04294h20.35644q17.78981,0,17.791,13.21778a11.85243,11.85243,0,0,1-1.729,6.60839,12.02538,12.02538,0,0,1-5.29834,4.26661l9.76025,15.72753Zm-8.5332-21.97363q3.79174,0,5.52148-1.11523a3.99189,3.99189,0,0,0,1.729-3.625,3.93233,3.93233,0,0,0-1.6455-3.542q-1.64575-1.08691-5.49317-1.0879H223.3738v9.37012Z"/><path class="cls-1" d="M255.49733,70.86325V31.04294h34.68946v8.97852H266.9861v6.0791h22.02979v8.97949H266.9861v6.80371h24.53955l-1.11572,8.97949Z"/><path class="cls-1" d="M327.77614,70.86325l-3.01123-7.418H306.41579l-2.95557,7.418H291.58083l17.34473-39.82031h13.71972L339.99,70.86325Zm-12.15771-30.5625L309.8738,54.5781h11.48877Z"/><path class="cls-1" d="M382.15212,70.86325V47.66208L371.83474,70.86325h-8.58887L352.92849,47.77439V70.86325H342.33181V31.04294h13.21777l12.21387,27.10449,12.1582-27.10449h12.99463V70.86325Z"/><path class="cls-1" d="M207.92507,101.79782a15.70655,15.70655,0,0,1-6.41358,11.60059q-5.63378,4.12793-15.0581,4.127a27.93185,27.93185,0,0,1-12.1582-2.4541,18.08183,18.08183,0,0,1-7.94727-7.19433,21.65324,21.65324,0,0,1-2.81641-11.26563,21.49267,21.49267,0,0,1,2.73291-10.93164,18.57445,18.57445,0,0,1,7.89161-7.36133,26.98762,26.98762,0,0,1,12.353-2.62109q8.644,0,13.80323,3.51367,5.15844,3.5127,6.88818,10.59668l-11.7124,1.33789a8.48718,8.48718,0,0,0-3.20655-4.60058,10.43661,10.43661,0,0,0-5.82812-1.42286,10.3152,10.3152,0,0,0-7.91943,3.04q-2.84473,3.03956-2.84424,8.44922,0,5.4668,2.87207,8.47754,2.87182,3.01026,8.11474,3.01074a11.45845,11.45845,0,0,0,6.38575-1.5332,7.35828,7.35828,0,0,0,3.03955-4.76856Z"/><path class="cls-1" d="M211.49392,116.52146V76.70115h11.71191v39.82031Z"/><path class="cls-1" d="M240.4944,116.52146V86.29392h-14.835V76.70115h41.38184v9.59277h-14.835v30.22754Z"/><path class="cls-1" d="M283.158,116.52146V101.29587L266.594,76.70115h12.71582l9.87159,15.33691,9.92724-15.33691h12.3252l-16.564,24.59472v15.22559Z"/></svg>