<?xml version="1.0" encoding="utf-8"?>
<!-- Generator: Adobe Illustrator 26.0.3, SVG Export Plug-In . SVG Version: 6.00 Build 0)  -->
<svg version="1.1" id="Layer_1" xmlns="http://www.w3.org/2000/svg" xmlns:xlink="http://www.w3.org/1999/xlink" x="0px" y="0px"
	 viewBox="0 0 421 148.6" style="enable-background:new 0 0 421 148.6;" xml:space="preserve">
<path d="M105.4,69.8l10.8-4.5l-4.9-0.9c-3.2,0.6-11.5,0.3-14.9,0.1l8.7,3l0.1,0.9L39.9,87l-4.8,6.3l70.1-24.8L105.4,69.8z"/>
<polygon points="32.9,98 28.1,104.3 111.3,68.1 "/>
<path d="M120.4,29.9c23.5,27.6,11.2,81-36.7,81.8c-12-0.2-21.7-3.7-29.3-9.2c8,9.5,20.3,16,36.7,16.2
	C143.6,117.8,153.4,54.1,120.4,29.9z"/>
<path d="M165.3,70.9V31h18.7c8,0,14,1.7,18.1,5c4.1,3.4,6.2,8.3,6.2,14.9c0,6.4-2.2,11.3-6.5,14.7c-4.3,3.5-10.4,5.2-18.3,5.2
	L165.3,70.9z M183.8,61.5c8.4,0,12.6-3.5,12.6-10.6c0-7-4-10.5-12.1-10.5h-7.4v21.1L183.8,61.5z"/>
<path d="M240.5,70.9l-8-13.5h-9.1v13.5h-11V31h20.4c11.9,0,17.8,4.4,17.8,13.2c0.1,2.3-0.5,4.6-1.7,6.6c-1.3,1.9-3.2,3.4-5.3,4.3
	l9.8,15.7H240.5z M232,48.9c2.5,0,4.4-0.4,5.5-1.1c1.2-0.8,1.8-2.2,1.7-3.6c0.1-1.4-0.5-2.7-1.6-3.5c-1.1-0.7-2.9-1.1-5.5-1.1h-8.7
	v9.4L232,48.9z"/>
<path d="M255.5,70.9V31h34.7v9H267v6.1h22v9h-22v6.8h24.5l-1.1,9L255.5,70.9z"/>
<path d="M327.8,70.9l-3-7.4h-18.3l-3,7.4h-11.9L308.9,31h13.7L340,70.9H327.8z M315.6,40.3l-5.7,14.3h11.5L315.6,40.3z"/>
<path d="M382.2,70.9V47.7l-10.3,23.2h-8.6l-10.3-23.1v23.1h-10.6V31h13.2l12.2,27.1L379.9,31h13v39.8H382.2z"/>
<path d="M207.9,101.8c-0.3,4.6-2.7,8.9-6.4,11.6c-3.8,2.8-8.8,4.1-15.1,4.1c-4.2,0.1-8.3-0.7-12.2-2.5c-3.3-1.5-6.1-4-7.9-7.2
	c-1.9-3.4-2.9-7.3-2.8-11.3c-0.1-3.8,0.9-7.6,2.7-10.9c1.8-3.2,4.6-5.7,7.9-7.4c3.9-1.8,8.1-2.7,12.4-2.6c5.8,0,10.4,1.2,13.8,3.5
	c3.4,2.3,5.7,5.9,6.9,10.6l-11.7,1.3c-0.5-1.9-1.6-3.5-3.2-4.6c-1.8-1-3.8-1.5-5.8-1.4c-3-0.2-5.8,0.9-7.9,3c-1.9,2-2.8,4.8-2.8,8.4
	c0,3.6,1,6.5,2.9,8.5c1.9,2,4.6,3,8.1,3c2.2,0.1,4.5-0.4,6.4-1.5c1.6-1.1,2.7-2.8,3-4.8H207.9z"/>
<path d="M211.5,116.5V76.7h11.7v39.8L211.5,116.5z"/>
<path d="M240.5,116.5V86.3h-14.8v-9.6H267v9.6h-14.8v30.2L240.5,116.5z"/>
<path d="M283.2,116.5v-15.2l-16.6-24.6h12.7l9.9,15.3l9.9-15.3h12.3l-16.6,24.6v15.2L283.2,116.5z"/>
</svg>
