<svg width="28" height="23" viewBox="0 0 28 23" fill="none" xmlns="http://www.w3.org/2000/svg">
<path d="M25.1016 5.8125C26.1953 4.99219 27.1797 4.00781 27.9453 2.85938C26.9609 3.29688 25.8125 3.625 24.6641 3.73438C25.8672 3.02344 26.7422 1.92969 27.1797 0.5625C26.0859 1.21875 24.8281 1.71094 23.5703 1.98438C22.4766 0.835938 21 0.179688 19.3594 0.179688C16.1875 0.179688 13.6172 2.75 13.6172 5.92188C13.6172 6.35938 13.6719 6.79688 13.7812 7.23438C9.02344 6.96094 4.75781 4.66406 1.91406 1.21875C1.42188 2.03906 1.14844 3.02344 1.14844 4.11719C1.14844 6.08594 2.13281 7.83594 3.71875 8.875C2.78906 8.82031 1.85938 8.60156 1.09375 8.16406V8.21875C1.09375 11.0078 3.0625 13.3047 5.6875 13.8516C5.25 13.9609 4.70312 14.0703 4.21094 14.0703C3.82812 14.0703 3.5 14.0156 3.11719 13.9609C3.82812 16.2578 5.96094 17.8984 8.47656 17.9531C6.50781 19.4844 4.04688 20.4141 1.36719 20.4141C0.875 20.4141 0.4375 20.3594 0 20.3047C2.51562 21.9453 5.52344 22.875 8.80469 22.875C19.3594 22.875 25.1016 14.1797 25.1016 6.57812C25.1016 6.30469 25.1016 6.08594 25.1016 5.8125Z" fill="#E7FF09"/>
</svg>
