<svg width="90" height="90" viewBox="0 0 90 90" fill="none" xmlns="http://www.w3.org/2000/svg">
<path fill-rule="evenodd" clip-rule="evenodd" d="M90 0H0V90H90V0ZM7.53028 10.1242L11.3758 13.9697L13.9596 11.3859L10.1141 7.54037L14 3.6545L11.3455 1L7.45963 4.88587L3.61413 1.04037L1.03028 3.62422L4.87578 7.46972L1 11.3455L3.6545 14L7.53028 10.1242Z" fill="#00FFFF"/>
<path d="M20.4922 62V27.6406H31.625C35.8438 27.6406 38.5938 27.8125 39.875 28.1562C41.8438 28.6719 43.4922 29.7969 44.8203 31.5312C46.1484 33.25 46.8125 35.4766 46.8125 38.2109C46.8125 40.3203 46.4297 42.0938 45.6641 43.5312C44.8984 44.9688 43.9219 46.1016 42.7344 46.9297C41.5625 47.7422 40.3672 48.2812 39.1484 48.5469C37.4922 48.875 35.0938 49.0391 31.9531 49.0391H27.4297V62H20.4922ZM27.4297 33.4531V43.2031H31.2266C33.9609 43.2031 35.7891 43.0234 36.7109 42.6641C37.6328 42.3047 38.3516 41.7422 38.8672 40.9766C39.3984 40.2109 39.6641 39.3203 39.6641 38.3047C39.6641 37.0547 39.2969 36.0234 38.5625 35.2109C37.8281 34.3984 36.8984 33.8906 35.7734 33.6875C34.9453 33.5312 33.2812 33.4531 30.7812 33.4531H27.4297ZM64.7863 62H58.2003V37.1797C55.7941 39.4297 52.9581 41.0938 49.6925 42.1719V36.1953C51.4113 35.6328 53.2784 34.5703 55.2941 33.0078C57.3097 31.4297 58.6925 29.5938 59.4425 27.5H64.7863V62Z" fill="#F35276"/>
</svg>
