<svg width="1440" height="124" viewBox="0 0 1440 124" fill="none" xmlns="http://www.w3.org/2000/svg">
<path d="M364.5 0L0 11V106H719L364.5 0Z" fill="#FAFAFA"/>
<path d="M1074.99 0L1440 11V106H720L1074.99 0Z" fill="#FAFAFA"/>
<g clip-path="url(#clip0_44:184)">
<path d="M-2 69.5L20.001 115.501L100 72.5L170.001 99.501L303.001 32.501L498.001 67.501L616 59.5L636.64 88.552L699.7 87.5L719.5 124" stroke="#565656"/>
<path fill-rule="evenodd" clip-rule="evenodd" d="M716.272 77.13L718 78.128V80.122L716.272 81.119L714.158 80.122V78.128L716.272 77.13ZM722 83.128V85.122L720.272 86.12L718.158 85.122V83.128L720.272 82.13L722 83.128ZM726 78.128V80.122L724.272 81.119L722.158 80.122V78.128L724.272 77.13L726 78.128Z" fill="#F35276"/>
<path d="M-13.478 117.001L163.514 72.001L336.507 86.001L489.5 29L690.512 109.014L714.52 99.018L719.521 124" stroke="#565656" stroke-width="2"/>
<path d="M1440 69.289L1418.03 115.116L1338.14 72.274L1268.24 99.145L1135.42 32.467L940.694 67.299L822.858 59.337L801.23 88.249L739.004 87.202L719.5 124" stroke="#565656"/>
<path d="M1453 114.077L1276.01 69.294L1103.01 83.226L950.022 26.5L749.01 106.148L725.003 96.181L719.5 124" stroke="#565656" stroke-width="2"/>
</g>
<defs>
<clipPath id="clip0_44:184">
<rect width="1471" height="102.5" fill="white" transform="translate(1455 124) rotate(-180)"/>
</clipPath>
</defs>
</svg>
