<svg width="25" height="29" viewBox="0 0 25 29" fill="none" xmlns="http://www.w3.org/2000/svg">
<path d="M16.4922 13.8438C16.4922 12.9688 15.8359 12.2578 15.0703 12.2578C14.25 12.2578 13.5938 12.9688 13.5938 13.8438C13.5938 14.6641 14.25 15.375 15.0703 15.375C15.8359 15.375 16.4922 14.6641 16.4922 13.8438ZM9.92969 12.2578C9.16406 12.2578 8.50781 12.9688 8.50781 13.8438C8.50781 14.6641 9.16406 15.375 9.92969 15.375C10.75 15.375 11.3516 14.6641 11.3516 13.8438C11.4062 12.9688 10.75 12.2578 9.92969 12.2578ZM24.75 3.39844C24.75 1.8125 23.4375 0.5 21.8516 0.5H3.09375C1.50781 0.5 0.25 1.8125 0.25 3.39844V22.3203C0.25 23.9609 1.50781 25.2188 3.09375 25.2188H18.9531L18.2422 22.6484C22.3438 26.4219 21.1953 25.4375 24.75 28.5V3.39844ZM20.7578 16.6875C20.7578 16.6875 19.5547 18.7109 16.4375 18.8203C16.4375 18.8203 15.9453 18.2188 15.5078 17.6719C17.3672 17.1797 18.0781 16.0312 18.0781 16.0312C17.4766 16.4141 16.9297 16.6328 16.4375 16.8516C13.4297 18.1094 10.0938 17.6719 7.6875 16.3594C7.6875 16.3047 7.35938 16.1406 7.14062 15.9766C7.14062 15.9766 7.79688 17.125 9.60156 17.6719C9.16406 18.1641 8.67188 18.8203 8.67188 18.8203C5.55469 18.7109 4.40625 16.6875 4.40625 16.6875C4.40625 12.1484 6.375 8.53906 6.375 8.53906C8.39844 7.00781 10.3125 7.0625 10.3125 7.0625L10.4766 7.22656C7.96094 7.9375 6.8125 9.03125 6.8125 9.03125C6.8125 9.03125 7.08594 8.86719 7.63281 8.64844C10.8594 7.22656 14.7422 7.22656 18.0781 9.03125C18.0781 9.03125 16.9844 7.99219 14.5781 7.28125L14.7969 7.0625C14.7969 7.0625 16.7109 7.00781 18.7344 8.53906C18.7344 8.53906 20.7578 12.1484 20.7578 16.6875Z" fill="#E7FF09"/>
</svg>
