<svg width="90" height="90" viewBox="0 0 90 90" fill="none" xmlns="http://www.w3.org/2000/svg">
<path fill-rule="evenodd" clip-rule="evenodd" d="M90 0H0V90H90V0ZM7.53028 10.1242L11.3758 13.9697L13.9596 11.3859L10.1141 7.54037L14 3.6545L11.3455 1L7.45963 4.88587L3.61413 1.04037L1.03028 3.62422L4.87578 7.46972L1 11.3455L3.6545 14L7.53028 10.1242Z" fill="#E7FF09"/>
<path d="M20.4922 62V27.6406H31.625C35.8438 27.6406 38.5938 27.8125 39.875 28.1562C41.8438 28.6719 43.4922 29.7969 44.8203 31.5312C46.1484 33.25 46.8125 35.4766 46.8125 38.2109C46.8125 40.3203 46.4297 42.0938 45.6641 43.5312C44.8984 44.9688 43.9219 46.1016 42.7344 46.9297C41.5625 47.7422 40.3672 48.2812 39.1484 48.5469C37.4922 48.875 35.0938 49.0391 31.9531 49.0391H27.4297V62H20.4922ZM27.4297 33.4531V43.2031H31.2266C33.9609 43.2031 35.7891 43.0234 36.7109 42.6641C37.6328 42.3047 38.3516 41.7422 38.8672 40.9766C39.3984 40.2109 39.6641 39.3203 39.6641 38.3047C39.6641 37.0547 39.2969 36.0234 38.5625 35.2109C37.8281 34.3984 36.8984 33.8906 35.7734 33.6875C34.9453 33.5312 33.2812 33.4531 30.7812 33.4531H27.4297ZM59.0675 27.5C62.3956 27.5 64.9972 28.6875 66.8722 31.0625C69.1066 33.875 70.2238 38.5391 70.2238 45.0547C70.2238 51.5547 69.0988 56.2266 66.8488 59.0703C64.9894 61.4141 62.3956 62.5859 59.0675 62.5859C55.7238 62.5859 53.0284 61.3047 50.9816 58.7422C48.9347 56.1641 47.9113 51.5781 47.9113 44.9844C47.9113 38.5156 49.0363 33.8594 51.2863 31.0156C53.1456 28.6719 55.7394 27.5 59.0675 27.5ZM59.0675 32.9609C58.2706 32.9609 57.5597 33.2188 56.9347 33.7344C56.3097 34.2344 55.8253 35.1406 55.4816 36.4531C55.0284 38.1562 54.8019 41.0234 54.8019 45.0547C54.8019 49.0859 55.005 51.8594 55.4113 53.375C55.8175 54.875 56.3253 55.875 56.9347 56.375C57.5597 56.875 58.2706 57.125 59.0675 57.125C59.8644 57.125 60.5753 56.875 61.2003 56.375C61.8253 55.8594 62.3097 54.9453 62.6534 53.6328C63.1066 51.9453 63.3331 49.0859 63.3331 45.0547C63.3331 41.0234 63.13 38.2578 62.7238 36.7578C62.3175 35.2422 61.8019 34.2344 61.1769 33.7344C60.5675 33.2188 59.8644 32.9609 59.0675 32.9609Z" fill="#F35276"/>
</svg>
